{"asset":{"version":"2.0","generator":"VECTARY"},"nodes":[{"translation":[-0.0003468338389387977,6.938893903907129e-21,8.881784197001245e-19],"scale":[0.0031334373445917646,0.0031334373445917655,0.0031334373445917655],"rotation":[6.123233995736766e-17,0.9999999999999999,2.7755575615628914e-16,0],"name":"petal1_Plane.001 2","mesh":0}],"materials":[{"pbrMetallicRoughness":{"baseColorFactor":[0.7011695015314021,0.4819522370506978,0.9322768502645428,1],"metallicFactor":0,"roughnessFactor":0.2},"name":"Argos 2","emissiveFactor":[0,0,0],"extensions":{},"alphaMode":"OPAQUE","doubleSided":false}],"meshes":[{"primitives":[{"mode":4,"attributes":{"POSITION":1,"NORMAL":2,"TEXCOORD_0":3},"material":0,"indices":0}]}],"accessors":[{"bufferView":0,"byteOffset":0,"componentType":5125,"count":15360,"type":"SCALAR"},{"bufferView":1,"byteOffset":0,"componentType":5126,"count":2590,"max":[0.7605360150337219,0.47541001439094543,1.0431640148162842],"min":[-0.9010350108146667,0.2652919888496399,-0.7655019760131836],"type":"VEC3"},{"bufferView":2,"byteOffset":0,"componentType":5126,"count":2590,"type":"VEC3"},{"bufferView":3,"byteOffset":0,"componentType":5126,"count":2590,"type":"VEC2"}],"bufferViews":[{"buffer":0,"byteOffset":0,"byteLength":61440,"target":34963},{"buffer":0,"byteOffset":61440,"byteLength":31080,"target":34962},{"buffer":0,"byteOffset":92520,"byteLength":31080,"target":34962},{"buffer":0,"byteOffset":123600,"byteLength":20720,"target":34962}],"scene":0,"scenes":[{"nodes":[0],"name":"Petal"}],"extensionsUsed":["KHR_texture_transform"],"buffers":[{"byteLength":144320,"uri":"Petal.bin"}]}