{"asset":{"version":"2.0","generator":"VECTARY"},"nodes":[{"translation":[-0.009932704210281373,0.0004394699931144714,0.0001558274030685425],"scale":[0.001,0.001,0.001],"rotation":[-0.7071067811865475,0,0,0.7071067811865476],"name":"Plant1_Circle.015","mesh":0},{"translation":[-0.009932704210281373,0.0004394699931144714,0.0001558274030685425],"scale":[0.001,0.001,0.001],"rotation":[-0.7071067811865475,0,0,0.7071067811865476],"name":"Plant1Stem_Circle.014","mesh":1},{"translation":[-0.009932704210281373,0.0004394699931144714,0.0001558274030685425],"scale":[0.001,0.001,0.001],"rotation":[-0.7071067811865475,0,0,0.7071067811865476],"name":"PotSmall2_Vert.005","mesh":2},{"translation":[-0.009932704210281373,0.0004394699931144714,0.0001558274030685425],"scale":[0.001,0.001,0.001],"rotation":[-0.7071067811865475,0,0,0.7071067811865476],"name":"PotSmall2Dirt_Circle.004","mesh":3}],"materials":[{"pbrMetallicRoughness":{"baseColorFactor":[0.15105804687051058,0.5174013674966733,0.06575388026033009,1],"metallicFactor":0,"roughnessFactor":0.2},"name":"Medusa","emissiveFactor":[0,0,0],"extensions":{},"alphaMode":"OPAQUE","doubleSided":false},{"pbrMetallicRoughness":{"baseColorFactor":[0.08241420588845924,0.8912620368134188,0.08919350686224783,1],"metallicFactor":0,"roughnessFactor":0.2},"name":"Promenade","emissiveFactor":[0,0,0],"extensions":{},"alphaMode":"OPAQUE","doubleSided":false},{"pbrMetallicRoughness":{"baseColorFactor":[0.17343903633213503,0.052841625522879035,0.04777575355617064,1],"metallicFactor":0,"roughnessFactor":0.2},"name":"Atlantis","emissiveFactor":[0,0,0],"extensions":{},"alphaMode":"OPAQUE","doubleSided":false},{"pbrMetallicRoughness":{"baseColorFactor":[0.042987010162657116,0.015175238159625197,0.006584957382581684,1],"metallicFactor":0,"roughnessFactor":0.2},"name":"Abyss","emissiveFactor":[0,0,0],"extensions":{},"alphaMode":"OPAQUE","doubleSided":false}],"meshes":[{"primitives":[{"mode":4,"attributes":{"POSITION":1,"NORMAL":2,"TEXCOORD_0":3},"material":0,"indices":0}]},{"primitives":[{"mode":4,"attributes":{"POSITION":5,"NORMAL":6,"TEXCOORD_0":7},"material":1,"indices":4}]},{"primitives":[{"mode":4,"attributes":{"POSITION":9,"NORMAL":10,"TEXCOORD_0":11},"material":2,"indices":8}]},{"primitives":[{"mode":4,"attributes":{"POSITION":13,"NORMAL":14,"TEXCOORD_0":15},"material":3,"indices":12}]}],"accessors":[{"bufferView":0,"byteOffset":0,"componentType":5125,"count":120960,"type":"SCALAR"},{"bufferView":1,"byteOffset":0,"componentType":5126,"count":22960,"max":[12.522183418273926,2.5288798809051514,13.020742416381836],"min":[7.343225002288818,-2.2172250747680664,2.7697670459747314],"type":"VEC3"},{"bufferView":2,"byteOffset":0,"componentType":5126,"count":22960,"type":"VEC3"},{"bufferView":3,"byteOffset":0,"componentType":5126,"count":22960,"type":"VEC2"},{"bufferView":4,"byteOffset":0,"componentType":5125,"count":2664,"type":"SCALAR"},{"bufferView":5,"byteOffset":0,"componentType":5126,"count":495,"max":[10.49184799194336,0.554298996925354,13.076382637023926],"min":[9.852801322937012,-0.27586400508880615,2.317781925201416],"type":"VEC3"},{"bufferView":6,"byteOffset":0,"componentType":5126,"count":495,"type":"VEC3"},{"bufferView":7,"byteOffset":0,"componentType":5126,"count":495,"type":"VEC2"},{"bufferView":8,"byteOffset":0,"componentType":5125,"count":13824,"type":"SCALAR"},{"bufferView":9,"byteOffset":0,"componentType":5126,"count":2463,"max":[11.594676971435547,1.5946769714355469,2.9916739463806152],"min":[8.405323028564453,-1.5946769714355469,-0.43946999311447144],"type":"VEC3"},{"bufferView":10,"byteOffset":0,"componentType":5126,"count":2463,"type":"VEC3"},{"bufferView":11,"byteOffset":0,"componentType":5126,"count":2463,"type":"VEC2"},{"bufferView":12,"byteOffset":0,"componentType":5125,"count":576,"type":"SCALAR"},{"bufferView":13,"byteOffset":0,"componentType":5126,"count":117,"max":[11.392730712890625,1.392730951309204,2.520977020263672],"min":[8.607269287109375,-1.392730951309204,2.284964084625244],"type":"VEC3"},{"bufferView":14,"byteOffset":0,"componentType":5126,"count":117,"type":"VEC3"},{"bufferView":15,"byteOffset":0,"componentType":5126,"count":117,"type":"VEC2"}],"bufferViews":[{"buffer":0,"byteOffset":0,"byteLength":483840,"target":34963},{"buffer":0,"byteOffset":483840,"byteLength":275520,"target":34962},{"buffer":0,"byteOffset":759360,"byteLength":275520,"target":34962},{"buffer":0,"byteOffset":1034880,"byteLength":183680,"target":34962},{"buffer":0,"byteOffset":1218560,"byteLength":10656,"target":34963},{"buffer":0,"byteOffset":1229216,"byteLength":5940,"target":34962},{"buffer":0,"byteOffset":1235156,"byteLength":5940,"target":34962},{"buffer":0,"byteOffset":1241096,"byteLength":3960,"target":34962},{"buffer":0,"byteOffset":1245056,"byteLength":55296,"target":34963},{"buffer":0,"byteOffset":1300352,"byteLength":29556,"target":34962},{"buffer":0,"byteOffset":1329908,"byteLength":29556,"target":34962},{"buffer":0,"byteOffset":1359464,"byteLength":19704,"target":34962},{"buffer":0,"byteOffset":1379168,"byteLength":2304,"target":34963},{"buffer":0,"byteOffset":1381472,"byteLength":1404,"target":34962},{"buffer":0,"byteOffset":1382876,"byteLength":1404,"target":34962},{"buffer":0,"byteOffset":1384280,"byteLength":936,"target":34962}],"scene":0,"scenes":[{"nodes":[0,1,2,3],"name":"pottedstem"}],"extensionsUsed":["KHR_texture_transform"],"buffers":[{"byteLength":1385216,"uri":"pottedstem.bin"}]}