{"asset":{"version":"2.0","generator":"VECTARY"},"nodes":[{"translation":[-0.23999999999999988,-0.11000000000000003,0.32],"scale":[0.0010650755696146033,0.0010650755696146033,0.0010650755696146033],"rotation":[-0.7071067811865475,0,0,0.7071067811865476],"name":"Object_0","mesh":0}],"materials":[{"pbrMetallicRoughness":{"baseColorFactor":[0.3,0.3,0.3,1],"metallicFactor":0,"roughnessFactor":0.6},"name":"DEFAULT","emissiveFactor":[0,0,0],"extensions":{},"alphaMode":"OPAQUE","doubleSided":true}],"meshes":[{"primitives":[{"mode":4,"attributes":{"POSITION":1,"NORMAL":2,"TEXCOORD_0":3},"material":0,"indices":0}]}],"accessors":[{"bufferView":0,"byteOffset":0,"componentType":5125,"count":3360,"type":"SCALAR"},{"bufferView":1,"byteOffset":0,"componentType":5126,"count":1686,"max":[471.125,593.7030029296875,238.34339904785156],"min":[0,0,0],"type":"VEC3"},{"bufferView":2,"byteOffset":0,"componentType":5126,"count":1686,"type":"VEC3"},{"bufferView":3,"byteOffset":0,"componentType":5126,"count":1686,"type":"VEC2"}],"bufferViews":[{"buffer":0,"byteOffset":0,"byteLength":13440,"target":34963},{"buffer":0,"byteOffset":13440,"byteLength":20232,"target":34962},{"buffer":0,"byteOffset":33672,"byteLength":20232,"target":34962},{"buffer":0,"byteOffset":53904,"byteLength":13488,"target":34962}],"scene":0,"scenes":[{"nodes":[0],"name":"cloud"}],"extensionsUsed":["KHR_texture_transform"],"buffers":[{"byteLength":67392,"uri":"cloud.bin"}]}